PathFileType	4	(X/Y/Z)	 1.9Hzhigh3min.trc
DataRate	CameraRate	NumFrames	NumMarkers	Units	OrigDataRate	OrigDataStartFrame	OrigNumFrames
200	200	9	43	m	200	126	1000
Frame#	Time	C7			LSH			RSH			MAN			RASI			LASI			HIPR			HIPL			RPSI			LPSI			COX			RTHI1			RTHI2			RTHI3			RTHI4			RLKN			RMKN			RSHA1			RSHA2			RSHA3			RSHA4			RLMAL			RMMAL			RHEEL			RMET5			RMET1			RTOE			LTHI1			LTHI2			LTHI3			LTHI4			LLKN			LMKN			LSHA1			LSHA2			LSHA3			LSHA4			LLMAL			LMMAL			LHEEL			LMET5			LMET1			LTOE			
		X1	Y1	Z1	X2	Y2	Z2	X3	Y3	Z3	X4	Y4	Z4	X5	Y5	Z5	X6	Y6	Z6	X7	Y7	Z7	X8	Y8	Z8	X9	Y9	Z9	X10	Y10	Z10	X11	Y11	Z11	X12	Y12	Z12	X13	Y13	Z13	X14	Y14	Z14	X15	Y15	Z15	X16	Y16	Z16	X17	Y17	Z17	X18	Y18	Z18	X19	Y19	Z19	X20	Y20	Z20	X21	Y21	Z21	X22	Y22	Z22	X23	Y23	Z23	X24	Y24	Z24	X25	Y25	Z25	X26	Y26	Z26	X27	Y27	Z27	X28	Y28	Z28	X29	Y29	Z29	X30	Y30	Z30	X31	Y31	Z31	X32	Y32	Z32	X33	Y33	Z33	X34	Y34	Z34	X35	Y35	Z35	X36	Y36	Z36	X37	Y37	Z37	X38	Y38	Z38	X39	Y39	Z39	X40	Y40	Z40	X41	Y41	Z41	X42	Y42	Z42	X43	Y43	Z43	
126	0.6300	-0.238158	1.455364	-0.587755	-0.168440	1.411372	-0.788610	-0.141582	1.408100	-0.397588	-0.106546	1.371330	-0.596445	-0.126065	0.937825	-0.464828	-0.145494	0.934355	-0.713978	-0.211338	0.988065	-0.419870	-0.224970	0.970733	-0.746021	-0.312537	0.980939	-0.522816	-0.321479	0.976034	-0.617136	-0.320188	0.978372	-0.570499	-0.174485	0.679291	-0.394411	-0.152025	0.623837	-0.398089	-0.090771	0.644276	-0.398186	-0.105461	0.704028	-0.394344	-0.104889	0.433441	-0.421547	-0.090991	0.416474	-0.536674	-0.223445	0.283537	-0.400633	-0.248109	0.249681	-0.407390	-0.177347	0.257133	-0.411394	-0.194251	0.221843	-0.414845	-0.335714	0.101533	-0.435021	-0.310915	0.094361	-0.519876	-0.390978	0.096012	-0.490279	-0.245886	0.030547	-0.399986	-0.190616	0.042706	-0.479709	-0.169440	0.033979	-0.482606	-0.189579	0.679477	-0.770219	-0.162040	0.624413	-0.771122	-0.102154	0.647566	-0.780599	-0.122456	0.704118	-0.781615	-0.092687	0.437543	-0.757804	-0.078377	0.426259	-0.640932	-0.215657	0.282538	-0.758462	-0.236825	0.249554	-0.748885	-0.182388	0.221891	-0.744901	-0.166324	0.261276	-0.755940	-0.310861	0.094756	-0.721007	-0.277354	0.095145	-0.638747	-0.364379	0.093675	-0.662097	-0.220530	0.027417	-0.754641	-0.166309	0.039457	-0.672533	-0.139586	0.032790	-0.681007	
127	0.6350	-0.236762	1.449030	-0.587946	-0.167458	1.403729	-0.788875	-0.140332	1.400426	-0.397724	-0.105407	1.363545	-0.596598	-0.126845	0.929404	-0.463762	-0.146462	0.925097	-0.714824	-0.213866	0.978860	-0.418969	-0.227109	0.960612	-0.746408	-0.314180	0.973265	-0.523234	-0.323137	0.968822	-0.616688	-0.321254	0.971616	-0.570754	-0.174240	0.673341	-0.394703	-0.151249	0.618097	-0.398375	-0.090173	0.639069	-0.397774	-0.105410	0.698699	-0.393862	-0.102054	0.428242	-0.422311	-0.087470	0.411969	-0.537510	-0.221721	0.279536	-0.402654	-0.246648	0.245945	-0.409757	-0.175796	0.252676	-0.413446	-0.193076	0.217665	-0.416838	-0.336279	0.099620	-0.438194	-0.310595	0.091690	-0.522727	-0.391217	0.093507	-0.494218	-0.246497	0.030834	-0.400954	-0.190440	0.042582	-0.480153	-0.169181	0.033891	-0.482664	-0.189429	0.672450	-0.769669	-0.161435	0.617629	-0.770645	-0.101889	0.641252	-0.781087	-0.122662	0.697617	-0.782081	-0.090023	0.432142	-0.757798	-0.074594	0.421554	-0.640876	-0.213897	0.278615	-0.756716	-0.235240	0.245835	-0.746768	-0.181022	0.217791	-0.742981	-0.164728	0.256984	-0.754389	-0.311117	0.092519	-0.717847	-0.276739	0.092306	-0.635943	-0.364279	0.091166	-0.657952	-0.221018	0.027709	-0.753751	-0.165808	0.039282	-0.672281	-0.139125	0.032727	-0.681158	
128	0.6400	-0.235411	1.443143	-0.588143	-0.166520	1.396588	-0.789136	-0.139129	1.393244	-0.397875	-0.104393	1.356451	-0.596737	-0.127556	0.921513	-0.462468	-0.147429	0.916122	-0.715886	-0.216775	0.970159	-0.418096	-0.229457	0.950903	-0.746800	-0.315652	0.966580	-0.523676	-0.324681	0.962725	-0.616392	-0.322253	0.965706	-0.570985	-0.174099	0.667866	-0.395100	-0.150609	0.612826	-0.398784	-0.089712	0.634305	-0.397417	-0.105467	0.693815	-0.393414	-0.099361	0.423631	-0.423111	-0.083772	0.408009	-0.538338	-0.220171	0.276198	-0.404744	-0.245312	0.242807	-0.412248	-0.174337	0.248855	-0.415363	-0.192028	0.214184	-0.418585	-0.336604	0.098057	-0.441294	-0.310022	0.089370	-0.525504	-0.391186	0.091429	-0.498088	-0.247081	0.031195	-0.401999	-0.190185	0.042441	-0.480618	-0.168882	0.033806	-0.482745	-0.189455	0.666391	-0.768993	-0.161061	0.611801	-0.770095	-0.101860	0.635830	-0.781524	-0.123045	0.692026	-0.782467	-0.087441	0.427400	-0.757788	-0.070729	0.417556	-0.640870	-0.212385	0.275352	-0.754947	-0.233893	0.242750	-0.744649	-0.179899	0.214277	-0.741311	-0.163377	0.253293	-0.753013	-0.311267	0.090795	-0.714821	-0.275914	0.089877	-0.633306	-0.363952	0.089124	-0.653985	-0.221506	0.028027	-0.752826	-0.165296	0.039127	-0.672056	-0.138684	0.032683	-0.681317	
129	0.6450	-0.234126	1.437734	-0.588338	-0.165623	1.390013	-0.789381	-0.138017	1.386639	-0.398024	-0.103501	1.350075	-0.596843	-0.128189	0.914303	-0.460976	-0.148373	0.907667	-0.717176	-0.219856	0.962210	-0.417250	-0.231933	0.941973	-0.747173	-0.316904	0.960896	-0.524053	-0.325991	0.957525	-0.616223	-0.323181	0.960576	-0.571167	-0.174015	0.662823	-0.395583	-0.150047	0.607985	-0.399335	-0.089333	0.629953	-0.397159	-0.105593	0.689337	-0.393022	-0.096795	0.419587	-0.423940	-0.079982	0.404535	-0.539141	-0.218795	0.273501	-0.406813	-0.244112	0.240265	-0.414734	-0.173087	0.245788	-0.416965	-0.191099	0.211361	-0.420034	-0.336666	0.096822	-0.444082	-0.309299	0.087421	-0.528055	-0.390960	0.089784	-0.501656	-0.247612	0.031585	-0.403038	-0.189889	0.042302	-0.481071	-0.168571	0.033724	-0.482854	-0.189610	0.661134	-0.768248	-0.160827	0.606776	-0.769508	-0.101977	0.631200	-0.781893	-0.123569	0.687234	-0.782765	-0.084932	0.423324	-0.757771	-0.066744	0.414172	-0.640971	-0.211044	0.272700	-0.753302	-0.232715	0.240254	-0.742724	-0.178947	0.211319	-0.739967	-0.162203	0.250187	-0.751887	-0.311296	0.089537	-0.712135	-0.274993	0.087881	-0.630995	-0.363497	0.087527	-0.650465	-0.221955	0.028329	-0.751967	-0.164808	0.038995	-0.671873	-0.138280	0.032648	-0.681452	
130	0.6500	-0.232929	1.432843	-0.588532	-0.164769	1.384067	-0.789608	-0.136978	1.380701	-0.398168	-0.102716	1.344434	-0.596924	-0.128759	0.907916	-0.459362	-0.149229	0.900014	-0.718602	-0.222832	0.955250	-0.416459	-0.234322	0.934223	-0.747488	-0.317919	0.956169	-0.524364	-0.327025	0.953137	-0.616124	-0.324024	0.956152	-0.571283	-0.173943	0.658215	-0.396145	-0.149505	0.603580	-0.399975	-0.088984	0.626024	-0.397029	-0.105728	0.685276	-0.392702	-0.094353	0.416088	-0.424791	-0.076229	0.401501	-0.539910	-0.217565	0.271407	-0.408749	-0.243019	0.238285	-0.417088	-0.171961	0.243340	-0.418369	-0.190300	0.209182	-0.421177	-0.336516	0.095920	-0.446443	-0.308543	0.085855	-0.530269	-0.390629	0.088536	-0.504726	-0.248078	0.031969	-0.403977	-0.189588	0.042168	-0.481492	-0.168274	0.033644	-0.482984	-0.189830	0.656507	-0.767466	-0.160637	0.602406	-0.768915	-0.102152	0.627230	-0.782173	-0.124172	0.683097	-0.782978	-0.082515	0.419927	-0.757766	-0.062649	0.411330	-0.641226	-0.209803	0.270578	-0.751950	-0.231626	0.238261	-0.741165	-0.178064	0.208881	-0.739008	-0.161113	0.247631	-0.751057	-0.311198	0.088656	-0.709972	-0.274079	0.086301	-0.629134	-0.363010	0.086311	-0.647608	-0.222322	0.028585	-0.751256	-0.164376	0.038886	-0.671737	-0.137923	0.032622	-0.681551	
131	0.6550	-0.231833	1.428510	-0.588724	-0.163962	1.378810	-0.789818	-0.136075	1.375474	-0.398274	-0.102012	1.339534	-0.596984	-0.129271	0.902440	-0.457758	-0.149934	0.893459	-0.719993	-0.225437	0.949475	-0.415755	-0.236321	0.928008	-0.747721	-0.318715	0.952294	-0.524574	-0.327805	0.949511	-0.616118	-0.324775	0.952342	-0.571321	-0.173850	0.654097	-0.396748	-0.148970	0.599661	-0.400675	-0.088639	0.622552	-0.397032	-0.105843	0.681666	-0.392493	-0.092044	0.413096	-0.425639	-0.072679	0.398863	-0.540643	-0.216437	0.269856	-0.410469	-0.242009	0.236810	-0.419171	-0.170921	0.241478	-0.419468	-0.189552	0.207492	-0.422169	-0.336241	0.095330	-0.448298	-0.307851	0.084661	-0.532051	-0.390249	0.087659	-0.507166	-0.248446	0.032309	-0.404763	-0.189318	0.042045	-0.481856	-0.168018	0.033567	-0.483124	-0.190055	0.652445	-0.766689	-0.160450	0.598584	-0.768319	-0.102322	0.623818	-0.782360	-0.124778	0.679515	-0.783108	-0.080228	0.417189	-0.757787	-0.058707	0.408872	-0.641642	-0.208599	0.268905	-0.750985	-0.230565	0.236697	-0.740078	-0.177187	0.206927	-0.738438	-0.160047	0.245586	-0.750540	-0.310996	0.088057	-0.708440	-0.273302	0.085138	-0.627815	-0.362596	0.085464	-0.645592	-0.222586	0.028770	-0.750760	-0.164045	0.038810	-0.671658	-0.137636	0.032600	-0.681620	
132	0.6600	-0.230841	1.424775	-0.588910	-0.163200	1.374292	-0.790012	-0.135299	1.370999	-0.398372	-0.101350	1.335367	-0.597030	-0.129727	0.897903	-0.456321	-0.150410	0.888254	-0.721105	-0.227439	0.944998	-0.415183	-0.237661	0.923544	-0.747841	-0.319317	0.949142	-0.524656	-0.328358	0.946486	-0.616163	-0.325397	0.949108	-0.571313	-0.173727	0.650542	-0.397354	-0.148447	0.596285	-0.401390	-0.088298	0.619577	-0.397149	-0.105912	0.678564	-0.392396	-0.089857	0.410592	-0.426463	-0.069497	0.396621	-0.541335	-0.215360	0.268760	-0.411866	-0.241055	0.235772	-0.420872	-0.169920	0.240093	-0.420292	-0.188836	0.206225	-0.422990	-0.335919	0.094991	-0.449637	-0.307292	0.083807	-0.533367	-0.389894	0.087097	-0.508908	-0.248703	0.032600	-0.405366	-0.189102	0.041940	-0.482139	-0.167815	0.033494	-0.483254	-0.190231	0.648916	-0.765975	-0.160236	0.595276	-0.767766	-0.102446	0.620889	-0.782466	-0.125316	0.676432	-0.783170	-0.078128	0.415055	-0.757848	-0.055106	0.406740	-0.642171	-0.207402	0.267623	-0.750461	-0.229516	0.235499	-0.739509	-0.176302	0.205397	-0.738223	-0.158985	0.243976	-0.750330	-0.310739	0.087656	-0.707575	-0.272763	0.084356	-0.627042	-0.362306	0.084924	-0.644452	-0.222748	0.028877	-0.750506	-0.163833	0.038765	-0.671638	-0.137438	0.032582	-0.681672	
133	0.6650	-0.229951	1.421698	-0.589095	-0.162479	1.370543	-0.790190	-0.134643	1.367305	-0.398456	-0.100708	1.331927	-0.597065	-0.130134	0.894314	-0.455184	-0.150594	0.884548	-0.721686	-0.228711	0.941842	-0.414786	-0.238190	0.920848	-0.747810	-0.319751	0.946625	-0.524634	-0.328699	0.943996	-0.616178	-0.325866	0.946500	-0.571275	-0.173586	0.647601	-0.397935	-0.147968	0.593500	-0.402080	-0.087975	0.617131	-0.397348	-0.105933	0.676000	-0.392401	-0.087812	0.408575	-0.427232	-0.066829	0.394784	-0.541986	-0.214311	0.268031	-0.412915	-0.240139	0.235106	-0.422120	-0.168975	0.239117	-0.420885	-0.188138	0.205295	-0.423644	-0.335613	0.094873	-0.450490	-0.306902	0.083232	-0.534224	-0.389615	0.086766	-0.509971	-0.248853	0.032804	-0.405768	-0.188953	0.041859	-0.482338	-0.167669	0.033432	-0.483365	-0.190348	0.645962	-0.765376	-0.160012	0.592506	-0.767296	-0.102514	0.618454	-0.782523	-0.125749	0.673852	-0.783189	-0.076291	0.413442	-0.757967	-0.052034	0.404958	-0.642764	-0.206229	0.266677	-0.750389	-0.228495	0.234639	-0.739438	-0.175428	0.204256	-0.738301	-0.157929	0.242753	-0.750394	-0.310476	0.087386	-0.707310	-0.272499	0.083915	-0.626757	-0.362175	0.084631	-0.644119	-0.222822	0.028909	-0.750482	-0.163744	0.038748	-0.671673	-0.137324	0.032571	-0.681718	
134	0.6700	-0.229154	1.419324	-0.589284	-0.161784	1.367587	-0.790354	-0.134099	1.364407	-0.398530	-0.100086	1.329240	-0.597104	-0.130493	0.891695	-0.454427	-0.150492	0.882333	-0.721587	-0.229296	0.939899	-0.414575	-0.237930	0.919683	-0.747617	-0.320032	0.944727	-0.524552	-0.328875	0.942147	-0.616169	-0.326170	0.944528	-0.571204	-0.173444	0.645310	-0.398470	-0.147564	0.591330	-0.402699	-0.087695	0.615227	-0.397597	-0.105921	0.674002	-0.392495	-0.085977	0.407029	-0.427925	-0.064799	0.393367	-0.542588	-0.213296	0.267587	-0.413612	-0.239278	0.234749	-0.422895	-0.168087	0.238449	-0.421284	-0.187498	0.204665	-0.424063	-0.335383	0.094891	-0.450942	-0.306696	0.082867	-0.534682	-0.389443	0.086601	-0.510450	-0.248917	0.032930	-0.405985	-0.188871	0.041798	-0.482462	-0.167578	0.033381	-0.483443	-0.190423	0.643719	-0.764907	-0.159835	0.590398	-0.766928	-0.102562	0.616584	-0.782568	-0.126061	0.671884	-0.783197	-0.074795	0.412283	-0.758159	-0.049685	0.403547	-0.643362	-0.205142	0.266019	-0.750697	-0.227557	0.234069	-0.739769	-0.174610	0.203458	-0.738597	-0.156939	0.241872	-0.750661	-0.310249	0.087191	-0.707494	-0.272475	0.083758	-0.626847	-0.362179	0.084497	-0.644374	-0.222835	0.028886	-0.750635	-0.163761	0.038757	-0.671756	-0.137286	0.032569	-0.681770	
